<svg width="16" height="16" viewBox="0 0 16 16" fill="none" xmlns="http://www.w3.org/2000/svg">
<path d="M7.99925 16C10.1719 16 10.4446 15.9905 11.298 15.9517C12.1496 15.9127 12.731 15.7778 13.2396 15.58C13.7658 15.3757 14.2121 15.1023 14.6568 14.6575C15.1018 14.2128 15.3752 13.7665 15.5802 13.2405C15.7785 12.7316 15.9135 12.1501 15.9518 11.2988C15.99 10.4454 16 10.1726 16 7.99992C16 5.82723 15.9903 5.55539 15.9517 4.70205C15.9125 3.85037 15.7777 3.26903 15.58 2.76036C15.3755 2.23419 15.1022 1.78785 14.6573 1.34318C14.2128 0.898176 13.7665 0.624173 13.2406 0.419837C12.7316 0.222002 12.1501 0.087168 11.2986 0.0481676C10.4453 0.00933384 10.1728 -0.000166416 8.00025 -0.000166416C5.82739 -0.000166416 5.55556 0.00933384 4.70222 0.0481676C3.85054 0.087168 3.26853 0.222002 2.75953 0.419837C2.23352 0.624173 1.78785 0.898176 1.34335 1.34318C0.898342 1.78785 0.625007 2.23419 0.420005 2.7602C0.223337 3.26903 0.0883346 3.85054 0.0483341 4.70188C0.0100004 5.55522 1.60678e-07 5.82723 1.60678e-07 7.99992C1.60678e-07 10.1726 0.0100004 10.4453 0.0483341 11.2986C0.0883346 12.1503 0.223337 12.7316 0.420005 13.2403C0.625007 13.7665 0.898342 14.2128 1.34335 14.6575C1.78835 15.1025 2.23336 15.3758 2.76003 15.58C3.27003 15.7778 3.85171 15.9127 4.70338 15.9517C5.55672 15.9905 5.82839 16 8.00175 16H7.99925ZM8.71692 14.5583C8.50392 14.5587 8.26625 14.5583 7.99925 14.5583C5.86323 14.5583 5.61006 14.5507 4.76655 14.5123C3.98654 14.4767 3.5632 14.3463 3.2812 14.2368C2.90786 14.0918 2.64169 13.9185 2.36186 13.6385C2.08185 13.3585 1.90852 13.0918 1.76319 12.7185C1.65368 12.4368 1.52318 12.0135 1.48768 11.2335C1.44935 10.3901 1.44102 10.1368 1.44102 8.00175C1.44102 5.86673 1.44935 5.61339 1.48768 4.77005C1.52335 3.99004 1.65368 3.5667 1.76319 3.28503C1.90819 2.9117 2.08185 2.64586 2.36186 2.36602C2.64186 2.08602 2.9077 1.91269 3.2812 1.76769C3.56287 1.65768 3.98654 1.52768 4.76655 1.49202C5.60989 1.45368 5.86323 1.44535 7.99925 1.44535C10.1354 1.44535 10.3886 1.45368 11.232 1.49202C12.012 1.52802 12.4353 1.65835 12.7175 1.76785C13.0908 1.91285 13.3575 2.08619 13.6375 2.36619C13.9175 2.64619 14.0908 2.9122 14.2361 3.2857C14.3456 3.56737 14.4762 3.99071 14.5117 4.77072C14.55 5.61406 14.5577 5.8674 14.5577 8.00375C14.5577 10.1401 14.55 10.3921 14.5117 11.2355C14.476 12.0155 14.3456 12.4388 14.2361 12.7208C14.0911 13.0941 13.9175 13.3608 13.6375 13.6408C13.3575 13.9208 13.0908 14.0941 12.7175 14.2395C12.4355 14.3495 12.012 14.4795 11.232 14.5153C10.4939 14.5487 10.2079 14.5587 8.71692 14.5603V14.5583ZM3.72887 13.23C4.25888 13.23 4.68888 12.8005 4.68888 12.2703C4.68888 11.7403 4.25888 11.3103 3.72887 11.3103C3.19887 11.3103 2.76886 11.7403 2.76886 12.2703C2.76886 12.8003 3.19887 13.2303 3.72887 13.2303V13.23ZM7.99925 12.1083C10.2681 12.1083 12.1076 10.2688 12.1076 7.99992C12.1076 5.73106 10.2681 3.89237 7.99925 3.89237C5.73039 3.89237 3.89154 5.73106 3.89154 7.99992C3.89154 10.2688 5.73056 12.1083 7.99942 12.1083H7.99925ZM7.99925 10.6666C6.52657 10.6666 5.33256 9.47277 5.33256 7.99992C5.33256 6.52723 6.52657 5.33322 7.99925 5.33322C9.4721 5.33322 10.6659 6.52723 10.6659 7.99992C10.6659 9.47277 9.4721 10.6666 7.99925 10.6666V10.6666Z" fill="white"/>
</svg>
