<svg width="71" height="59" viewBox="0 0 71 59" fill="none" xmlns="http://www.w3.org/2000/svg">
<path d="M27.0416 55.2831C24.9164 55.2831 25.1096 54.5189 24.53 52.6083L18.3477 32.5478L65.6813 5.03613" fill="#C8DAEA"/>
<path d="M27.0415 55.2825C28.3939 55.2825 29.1667 54.5183 30.1327 53.7541L38.8266 45.5388L28.0075 39.043" fill="#A9C9DD"/>
<path d="M28.0074 39.0432L54.0892 57.9575C56.7939 59.677 59.1123 58.7217 59.8851 55.2827L70.511 5.99105C71.477 1.78788 68.7722 -0.122651 65.8743 1.21472L3.85756 24.9053C-0.199603 26.4337 -0.199603 28.9174 3.08477 29.8727L19.1202 34.8401L55.8279 11.7226C57.5667 10.7674 59.1123 11.1495 57.9531 12.4868" fill="#F6FBFE"/>
</svg>
