<svg width="49" height="31" viewBox="0 0 49 31" fill="none" xmlns="http://www.w3.org/2000/svg">
<path fill-rule="evenodd" clip-rule="evenodd" d="M47.2908 2.84519C47.6285 1.66098 47.2908 0.832031 45.7152 0.832031H40.4629C39.1124 0.832031 38.5121 1.58203 38.1745 2.41098C38.1745 2.41098 35.5108 9.2794 31.7217 13.7005C30.4837 15.0031 29.9585 15.3978 29.2832 15.3978C28.9456 15.3978 28.4579 15.0031 28.4579 13.8189V2.84519C28.4579 1.42414 28.0827 0.832031 26.9572 0.832031H18.7037C17.8784 0.832031 17.3532 1.50308 17.3532 2.09519C17.3532 3.43729 19.229 3.75309 19.4541 7.46361V15.5952C19.4541 17.3715 19.1539 17.6873 18.4786 17.6873C16.7154 17.6873 12.3636 10.8189 9.81248 2.92414C9.28726 1.46361 8.79955 0.832031 7.44898 0.832031H2.19676C0.696123 0.832031 0.395996 1.58203 0.395996 2.41098C0.395996 3.87151 2.15924 11.1347 8.687 20.7268C13.0388 27.2794 19.1539 30.832 24.7063 30.832C28.0452 30.832 28.4579 30.0426 28.4579 28.7005V23.7268C28.4579 22.1478 28.758 21.832 29.846 21.832C30.6338 21.832 31.9468 22.2268 35.0607 25.3847C38.6247 29.1347 39.2249 30.832 41.2133 30.832H46.4655C47.9661 30.832 48.7164 30.0426 48.2662 28.5031C47.7785 26.9636 46.0903 24.7136 43.8394 22.0294C42.6013 20.4899 40.7631 18.8715 40.2378 18.0426C39.45 16.9768 39.6751 16.5031 40.2378 15.5952C40.2378 15.5557 46.6531 6.08203 47.2908 2.84519V2.84519Z" fill="white"/>
</svg>
