<svg width="203" height="40" viewBox="0 0 203 40" fill="none" xmlns="http://www.w3.org/2000/svg">
<rect x="92" width="111" height="40" fill="#F8E2E9"/>
<rect width="95" height="40" fill="#E6F8F5"/>
<path d="M95 40L79.9157 0L96.8032 0H109.5L95 40Z" fill="#E6F8F5"/>
<path d="M13.058 29C12.8233 29 12.618 28.9193 12.442 28.758C12.2807 28.5967 12.2 28.3913 12.2 28.142V12.676C12.2 12.4413 12.2807 12.2433 12.442 12.082C12.618 11.906 12.8233 11.818 13.058 11.818C13.2927 11.818 13.4907 11.906 13.652 12.082C13.828 12.2433 13.916 12.4413 13.916 12.676V27.372H22.518C22.7527 27.372 22.9507 27.4527 23.112 27.614C23.288 27.7607 23.376 27.9513 23.376 28.186C23.376 28.4207 23.288 28.6187 23.112 28.78C22.9507 28.9267 22.7527 29 22.518 29H13.058ZM36.477 29.22C35.201 29.22 34.0277 29 32.957 28.56C31.8863 28.12 30.955 27.504 30.163 26.712C29.3857 25.92 28.777 24.9887 28.337 23.918C27.9117 22.8473 27.699 21.674 27.699 20.398C27.699 19.1367 27.9117 17.9707 28.337 16.9C28.777 15.8293 29.3857 14.898 30.163 14.106C30.955 13.314 31.8863 12.698 32.957 12.258C34.0277 11.818 35.201 11.598 36.477 11.598C37.7383 11.598 38.9043 11.818 39.975 12.258C41.0457 12.698 41.977 13.314 42.769 14.106C43.561 14.898 44.1697 15.8293 44.595 16.9C45.035 17.9707 45.255 19.1367 45.255 20.398C45.255 21.674 45.035 22.8473 44.595 23.918C44.1697 24.9887 43.561 25.92 42.769 26.712C41.977 27.504 41.0457 28.12 39.975 28.56C38.9043 29 37.7383 29.22 36.477 29.22ZM36.477 27.592C37.489 27.592 38.4277 27.416 39.293 27.064C40.1583 26.6973 40.9063 26.1913 41.537 25.546C42.1823 24.886 42.681 24.1233 43.033 23.258C43.385 22.378 43.561 21.4247 43.561 20.398C43.561 19.386 43.385 18.4473 43.033 17.582C42.681 16.702 42.1823 15.9393 41.537 15.294C40.9063 14.634 40.1583 14.128 39.293 13.776C38.4277 13.4093 37.489 13.226 36.477 13.226C35.4503 13.226 34.5043 13.4093 33.639 13.776C32.7737 14.128 32.0183 14.634 31.373 15.294C30.7423 15.9393 30.251 16.702 29.899 17.582C29.547 18.4473 29.371 19.386 29.371 20.398C29.371 21.4247 29.547 22.378 29.899 23.258C30.251 24.1233 30.7423 24.886 31.373 25.546C32.0183 26.1913 32.7737 26.6973 33.639 27.064C34.5043 27.416 35.4503 27.592 36.477 27.592ZM58.2379 29C57.8713 29 57.6073 28.8167 57.4459 28.45L50.9119 13.16C50.7506 12.7493 50.7359 12.4267 50.8679 12.192C51.0146 11.9427 51.2639 11.818 51.6159 11.818C51.9826 11.818 52.2466 12.0013 52.4079 12.368L58.4799 26.888H57.9959L64.0459 12.412C64.1339 12.192 64.2439 12.038 64.3759 11.95C64.5079 11.862 64.6839 11.818 64.9039 11.818C65.2413 11.818 65.4686 11.95 65.5859 12.214C65.7033 12.4633 65.6959 12.7493 65.5639 13.072L59.0079 28.45C58.9199 28.6553 58.8099 28.802 58.6779 28.89C58.5459 28.9633 58.3993 29 58.2379 29ZM73.106 29C72.8566 29 72.6513 28.9193 72.49 28.758C72.3286 28.5967 72.248 28.3913 72.248 28.142V12.676C72.248 12.4267 72.3286 12.2213 72.49 12.06C72.6513 11.8987 72.8566 11.818 73.106 11.818H83.424C83.6586 11.818 83.8566 11.8987 84.018 12.06C84.194 12.2067 84.282 12.4047 84.282 12.654C84.282 12.874 84.194 13.0647 84.018 13.226C83.8566 13.3873 83.6586 13.468 83.424 13.468H73.964V19.54H80.85C81.0993 19.54 81.3046 19.6207 81.466 19.782C81.6273 19.9433 81.708 20.1413 81.708 20.376C81.708 20.6107 81.6273 20.8087 81.466 20.97C81.3046 21.1313 81.0993 21.212 80.85 21.212H73.964V27.35H83.424C83.6586 27.35 83.8566 27.4307 84.018 27.592C84.194 27.7533 84.282 27.944 84.282 28.164C84.282 28.4133 84.194 28.6187 84.018 28.78C83.8566 28.9267 83.6586 29 83.424 29H73.106Z" fill="#DBC4CB"/>
<path d="M116.168 29C115.889 29 115.655 28.9267 115.464 28.78C115.288 28.6187 115.2 28.406 115.2 28.142V12.676C115.2 12.4267 115.281 12.2213 115.442 12.06C115.603 11.8987 115.809 11.818 116.058 11.818H121.404C122.284 11.818 123.076 12.0087 123.78 12.39C124.499 12.7567 125.063 13.2627 125.474 13.908C125.899 14.5533 126.112 15.3013 126.112 16.152C126.112 16.944 125.899 17.648 125.474 18.264C125.049 18.88 124.491 19.3493 123.802 19.672C124.785 19.936 125.577 20.4347 126.178 21.168C126.779 21.8867 127.08 22.8033 127.08 23.918C127.08 24.9153 126.853 25.7953 126.398 26.558C125.943 27.3207 125.313 27.922 124.506 28.362C123.714 28.7873 122.805 29 121.778 29H116.168ZM116.916 27.35H121.778C122.482 27.35 123.105 27.2107 123.648 26.932C124.191 26.6533 124.616 26.2573 124.924 25.744C125.232 25.2307 125.386 24.622 125.386 23.918C125.386 23.258 125.232 22.686 124.924 22.202C124.616 21.7033 124.191 21.322 123.648 21.058C123.105 20.7793 122.482 20.64 121.778 20.64H116.916V27.35ZM116.916 18.99H121.404C122.284 18.99 123.01 18.7407 123.582 18.242C124.154 17.7433 124.44 17.0467 124.44 16.152C124.44 15.272 124.154 14.6047 123.582 14.15C123.01 13.6953 122.284 13.468 121.404 13.468H116.916V18.99ZM133.775 29C133.526 29 133.32 28.9193 133.159 28.758C132.998 28.5967 132.917 28.3913 132.917 28.142V12.676C132.917 12.4267 132.998 12.2213 133.159 12.06C133.32 11.8987 133.526 11.818 133.775 11.818C134.024 11.818 134.23 11.8987 134.391 12.06C134.552 12.2213 134.633 12.4267 134.633 12.676V28.142C134.633 28.3913 134.552 28.5967 134.391 28.758C134.23 28.9193 134.024 29 133.775 29ZM142.318 29C142.083 29 141.878 28.9193 141.702 28.758C141.541 28.5967 141.46 28.3913 141.46 28.142V12.676C141.46 12.4413 141.541 12.2433 141.702 12.082C141.878 11.906 142.083 11.818 142.318 11.818C142.553 11.818 142.751 11.906 142.912 12.082C143.088 12.2433 143.176 12.4413 143.176 12.676V27.372H151.778C152.013 27.372 152.211 27.4527 152.372 27.614C152.548 27.7607 152.636 27.9513 152.636 28.186C152.636 28.4207 152.548 28.6187 152.372 28.78C152.211 28.9267 152.013 29 151.778 29H142.318ZM158.66 29C158.41 29 158.205 28.9193 158.044 28.758C157.882 28.5967 157.802 28.3913 157.802 28.142V12.676C157.802 12.4267 157.882 12.2213 158.044 12.06C158.205 11.8987 158.41 11.818 158.66 11.818C158.909 11.818 159.114 11.8987 159.276 12.06C159.437 12.2213 159.518 12.4267 159.518 12.676V28.142C159.518 28.3913 159.437 28.5967 159.276 28.758C159.114 28.9193 158.909 29 158.66 29ZM171.339 29C171.104 29 170.899 28.9193 170.723 28.758C170.562 28.582 170.481 28.3767 170.481 28.142V11.818H172.197V28.142C172.197 28.3767 172.116 28.582 171.955 28.758C171.794 28.9193 171.588 29 171.339 29ZM165.267 13.38C165.032 13.38 164.842 13.3067 164.695 13.16C164.548 13.0133 164.475 12.83 164.475 12.61C164.475 12.3753 164.548 12.1847 164.695 12.038C164.842 11.8913 165.032 11.818 165.267 11.818H177.433C177.668 11.818 177.858 11.8913 178.005 12.038C178.152 12.1847 178.225 12.3753 178.225 12.61C178.225 12.83 178.152 13.0133 178.005 13.16C177.858 13.3067 177.668 13.38 177.433 13.38H165.267ZM188.109 29C187.874 29 187.669 28.9193 187.493 28.758C187.332 28.582 187.251 28.3767 187.251 28.142V22.642L181.267 13.16C181.12 12.94 181.062 12.7273 181.091 12.522C181.135 12.3167 181.23 12.148 181.377 12.016C181.524 11.884 181.707 11.818 181.927 11.818C182.103 11.818 182.242 11.8547 182.345 11.928C182.462 12.0013 182.565 12.104 182.653 12.236L188.593 21.806H187.669L193.587 12.28C193.69 12.1187 193.8 12.0013 193.917 11.928C194.049 11.8547 194.203 11.818 194.379 11.818C194.584 11.818 194.753 11.8913 194.885 12.038C195.032 12.17 195.112 12.3387 195.127 12.544C195.156 12.7493 195.105 12.9547 194.973 13.16L188.967 22.642V28.142C188.967 28.3767 188.879 28.582 188.703 28.758C188.542 28.9193 188.344 29 188.109 29Z" fill="#B0D5E0"/>
</svg>
